<svg width="253" height="43" viewBox="0 0 253 43" fill="none" xmlns="http://www.w3.org/2000/svg">
<path d="M93.7729 12.3662C99.5068 12.3662 103.372 14.6556 103.372 19.1378V20.2019H98.2183V19.1378C98.2183 17.332 96.5432 16.4291 93.7729 16.4291H93.1931C90.3583 16.4291 88.7477 17.2675 88.7477 18.4929V18.8153C88.7477 20.2986 90.0362 20.7178 95.2547 21.5884C101.15 22.6525 103.759 24.3938 103.759 28.0375V28.36C103.759 32.0037 100.473 34.6156 93.8696 34.6156H93.2575C86.5894 34.6156 83.207 31.9715 83.207 27.4894V26.4897H88.3611V27.4894C88.3611 29.7788 90.1328 30.5204 93.2897 30.5204H93.8696C96.8654 30.5204 98.5404 29.811 98.5404 28.4245V28.1343C98.5404 26.7477 96.9942 26.135 91.8079 25.2967C86.3639 24.426 83.5292 22.7815 83.5292 19.0733V18.6541C83.5292 14.6556 87.2014 12.3662 93.1931 12.3662H93.7729Z" fill="white"/>
<path d="M119.51 34.2929V32.1325H118.834C117.835 33.648 115.999 34.6154 113.422 34.6154H112.874C108.88 34.6154 106.625 32.4549 106.625 27.7471V17.751H111.779V26.812C111.779 29.1014 112.971 30.359 115.355 30.359H115.902C118.286 30.359 119.51 29.1014 119.51 26.812V17.751H124.664V34.2929H119.51Z" fill="white"/>
<path d="M133.56 17.7507V19.7821H134.237C135.429 18.2989 137.2 17.4282 139.681 17.4282H140.261C144.448 17.4282 147.509 19.7821 147.509 25.0704V26.9729C147.509 32.2612 144.448 34.6151 140.261 34.6151H139.681C137.136 34.6151 135.396 33.7154 134.237 32.1967H133.56V42.0316H128.406V17.7507H133.56ZM133.56 25.0059V27.0051C133.56 29.4236 135.203 30.5844 137.651 30.5844H138.231C140.712 30.5844 142.355 29.3913 142.355 27.0051V25.0059C142.355 22.652 140.712 21.4589 138.231 21.4589H137.651C135.203 21.4589 133.56 22.6198 133.56 25.0059Z" fill="white"/>
<path d="M160.005 17.4282C165.255 17.4282 169.024 19.9756 169.024 25.1349V27.2309H155.173V27.4243C155.173 29.8105 156.687 31.0036 159.393 31.0036H160.005C162.26 31.0036 163.677 30.3587 164.128 28.7786H168.863C168.412 32.1967 165.578 34.6151 160.005 34.6151H159.393C154.142 34.6151 150.309 32.1644 150.309 27.0051V25.1349C150.309 19.9756 154.11 17.4282 159.393 17.4282H160.005ZM155.205 23.9741H164.128C163.935 22.0716 162.356 21.0397 159.973 21.0397H159.36C156.816 21.0397 155.398 22.0716 155.205 23.9741Z" fill="white"/>
<path d="M177.525 17.7507V19.6532H178.169C179.136 18.2021 180.618 17.4282 182.873 17.4282C186.416 17.4282 188.284 19.2017 188.284 23.8451V24.9414H183.517V24.2643C183.517 22.5553 182.55 21.6524 180.521 21.6524C178.492 21.6524 177.525 22.5553 177.525 24.2643V34.2926H172.371V17.7507H177.525Z" fill="white"/>
<path d="M209.548 10.4316V34.2933H204.394V32.1974H203.685C202.525 33.7161 200.818 34.6158 198.273 34.6158H197.661C193.473 34.6158 190.445 32.2941 190.445 26.9736V25.0711C190.445 19.7828 193.473 17.4289 197.661 17.4289H198.273C200.754 17.4289 202.493 18.2995 203.685 19.7828H204.394V10.4316H209.548ZM195.599 25.0066V27.0058C195.599 29.3598 197.242 30.5851 199.69 30.5851H200.27C202.751 30.5851 204.394 29.392 204.394 27.0058V25.0066C204.394 22.6527 202.751 21.4596 200.27 21.4596H199.69C197.242 21.4596 195.599 22.6849 195.599 25.0066Z" fill="white"/>
<path d="M222.241 17.4282C228.072 17.4282 230.713 19.6532 230.713 23.4259V34.2926H225.559V32.1967H224.786C223.498 33.8767 221.661 34.6151 218.859 34.6151C215.38 34.6151 212.867 33.0705 212.867 29.617C212.867 26.2635 215.09 24.2965 220.244 24.2965H225.559V23.4259C225.559 21.7814 224.432 21.0075 222.209 21.0075H221.629C219.503 21.0075 218.279 21.7491 218.279 23.3614H213.222C213.222 19.6209 216.088 17.4282 221.629 17.4282H222.241ZM217.957 29.1011C217.957 30.1974 218.859 30.8746 221.017 30.8746C223.175 30.8746 225.559 30.1007 225.559 27.7468V27.2631H220.953C218.794 27.2631 217.957 27.8758 217.957 29.1011Z" fill="white"/>
<path d="M243.756 17.4282C249.135 17.4282 253.001 20.0079 253.001 25.0704V26.9729C253.001 32.0999 249.135 34.6151 243.756 34.6151H243.144C237.732 34.6151 233.898 32.0677 233.898 26.9729V25.0704C233.898 20.0079 237.732 17.4282 243.144 17.4282H243.756ZM239.053 25.0059V27.0051C239.053 29.1978 240.309 30.5844 243.144 30.5844H243.756C246.59 30.5844 247.847 29.1978 247.847 27.0051V25.0059C247.847 22.8132 246.59 21.4589 243.756 21.4589H243.144C240.309 21.4589 239.053 22.8132 239.053 25.0059Z" fill="white"/>
<path d="M49.7715 9.48456L53.6509 25.6966C54.0762 27.4735 52.7306 29.1812 50.9052 29.1812H15.9174C12.5844 29.1812 9.60617 27.0978 8.46043 23.9648L8.14265 23.0959C7.97404 22.6349 8.315 22.1464 8.80553 22.1464H31.6552C31.9258 22.1464 32.1452 21.9268 32.1452 21.656C32.1452 19.6246 30.5 17.9777 28.4706 17.9777H11.8202C8.48728 17.9777 5.50902 15.8943 4.36329 12.7613L4.07727 11.9792C3.90866 11.5182 4.24963 11.0298 4.74011 11.0298H26.4496C26.7201 11.0298 26.9395 10.8102 26.9395 10.5393C26.9395 8.50788 25.2943 6.86105 23.2649 6.86105H7.75481C4.42188 6.86105 1.44362 4.77769 0.297892 1.64472L0.0436347 0.94947C-0.124973 0.488375 0.215992 0 0.706471 0H37.7589C43.4725 0 48.4406 3.92251 49.7715 9.48456Z" fill="url(#paint0_linear_8758_23408)"/>
<path d="M63.5068 14.3098L68.9473 37.699C69.3598 39.4714 68.0155 41.1662 66.1976 41.1662H29.7049C26.2486 41.1662 23.1892 38.9282 22.1393 35.6319L21.7695 34.471C21.5518 33.7873 22.0614 33.0892 22.7783 33.0892H56.1012C57.9293 33.0892 59.2754 31.3766 58.8453 29.5979L53.9779 9.47285C53.8166 8.80583 54.3214 8.16357 55.007 8.16357H55.7728C59.4646 8.16357 62.6696 10.7105 63.5068 14.3098Z" fill="url(#paint1_linear_8758_23408)"/>
<defs>
<linearGradient id="paint0_linear_8758_23408" x1="26.8528" y1="0" x2="26.8528" y2="29.1812" gradientUnits="userSpaceOnUse">
<stop stop-color="#FFC803"/>
<stop offset="1" stop-color="#FFA903"/>
</linearGradient>
<linearGradient id="paint1_linear_8758_23408" x1="45.3039" y1="8.16357" x2="45.3039" y2="41.1662" gradientUnits="userSpaceOnUse">
<stop stop-color="#FF7421"/>
<stop offset="1" stop-color="#EC5901"/>
</linearGradient>
</defs>
</svg>
