<svg width="56" height="56" viewBox="0 0 56 56" fill="none" xmlns="http://www.w3.org/2000/svg">
<circle cx="28" cy="28" r="28" fill="url(#paint0_linear_9772_2433)"/>
<path d="M27.922 11.2L27.6992 11.9566V33.9094L27.922 34.1316L38.112 28.1082L27.922 11.2Z" fill="#10151A"/>
<path d="M27.9208 11.2L17.7305 28.1082L27.9208 34.1316V23.4764V11.2Z" fill="#10151A"/>
<path d="M27.9224 36.0609L27.7969 36.214V44.0339L27.9224 44.4004L38.1187 30.0406L27.9224 36.0609Z" fill="#10151A"/>
<path d="M27.9208 44.4004V36.0609L17.7305 30.0406L27.9208 44.4004Z" fill="#10151A"/>
<path d="M27.9219 34.1316L38.1119 28.1082L27.9219 23.4763V34.1316Z" fill="#10151A"/>
<path d="M17.7305 28.1082L27.9208 34.1316V23.4763L17.7305 28.1082Z" fill="#10151A"/>
<defs>
<linearGradient id="paint0_linear_9772_2433" x1="28" y1="0" x2="28" y2="56" gradientUnits="userSpaceOnUse">
<stop stop-color="#7993F9"/>
<stop offset="1" stop-color="#627EEA"/>
</linearGradient>
</defs>
</svg>
