<svg width="56" height="56" viewBox="0 0 56 56" fill="none" xmlns="http://www.w3.org/2000/svg">
<rect width="56" height="56" rx="28" fill="#F78787" fill-opacity="0.15"/>
<g clip-path="url(#clip0_8758_23430)">
<path fill-rule="evenodd" clip-rule="evenodd" d="M17.9161 24.2663C17.9161 22.1353 19.6436 20.4078 21.7746 20.4078H34.221C36.352 20.4078 38.0794 22.1353 38.0794 24.2663V31.7341C38.0794 33.8651 36.352 35.5925 34.221 35.5925H21.7746C19.6436 35.5925 17.9161 33.8651 17.9161 31.7341V24.2663ZM21.7746 18.1675C18.4063 18.1675 15.6758 20.898 15.6758 24.2663V31.7341C15.6758 35.1024 18.4063 37.8329 21.7746 37.8329H34.221C37.5893 37.8329 40.3198 35.1024 40.3198 31.7341V24.2663C40.3198 20.898 37.5893 18.1675 34.221 18.1675H21.7746ZM26.0871 23.3051C25.7411 23.0975 25.3101 23.0921 24.9589 23.2909C24.6077 23.4897 24.3906 23.8621 24.3906 24.2657V31.7336C24.3906 32.1371 24.6077 32.5095 24.9589 32.7084C25.3101 32.9072 25.7411 32.9018 26.0871 32.6941L32.3104 28.9602C32.6478 28.7577 32.8542 28.3931 32.8542 27.9996C32.8542 27.6062 32.6478 27.2415 32.3104 27.0391L26.0871 23.3051ZM26.631 29.7551V26.2441L29.5568 27.9996L26.631 29.7551Z" fill="#F78787"/>
</g>
<defs>
<clipPath id="clip0_8758_23430">
<rect width="28" height="28" fill="white" transform="translate(14 14)"/>
</clipPath>
</defs>
</svg>
