<svg width="40" height="40" viewBox="0 0 40 40" fill="none" xmlns="http://www.w3.org/2000/svg">
<rect width="40" height="40" rx="20" fill="#F78787" fill-opacity="0.15"/>
<g clip-path="url(#clip0_8758_27658)">
<path fill-rule="evenodd" clip-rule="evenodd" d="M11.3617 16.7995C11.3617 14.973 12.8424 13.4923 14.6689 13.4923H25.3373C27.1638 13.4923 28.6445 14.973 28.6445 16.7995V23.2006C28.6445 25.0271 27.1638 26.5078 25.3373 26.5078H14.6689C12.8424 26.5078 11.3617 25.0271 11.3617 23.2006V16.7995ZM14.6689 11.572C11.7818 11.572 9.44141 13.9125 9.44141 16.7995V23.2006C9.44141 26.0877 11.7818 28.4281 14.6689 28.4281H25.3373C28.2244 28.4281 30.5648 26.0877 30.5648 23.2006V16.7995C30.5648 13.9125 28.2244 11.572 25.3373 11.572H14.6689ZM18.3643 15.9757C18.0677 15.7977 17.6983 15.7931 17.3972 15.9635C17.0962 16.1339 16.9102 16.4531 16.9102 16.799V23.2001C16.9102 23.546 17.0962 23.8652 17.3972 24.0356C17.6983 24.206 18.0677 24.2014 18.3643 24.0234L23.6985 20.8229C23.9877 20.6493 24.1647 20.3368 24.1647 19.9995C24.1647 19.6623 23.9877 19.3497 23.6985 19.1762L18.3643 15.9757ZM18.8305 21.5042V18.4948L21.3383 19.9995L18.8305 21.5042Z" fill="#F78787"/>
</g>
<defs>
<clipPath id="clip0_8758_27658">
<rect width="24" height="24" fill="white" transform="translate(8 8)"/>
</clipPath>
</defs>
</svg>
