<svg width="40" height="40" viewBox="0 0 40 40" fill="none" xmlns="http://www.w3.org/2000/svg">
<rect width="40" height="40" rx="20" fill="#9277FF" fill-opacity="0.15"/>
<path d="M17.3066 11.9749C17.2647 11.6702 16.9889 11.4535 16.683 11.4849L16.5039 11.5032C16.5039 11.5032 13.8517 11.7928 11.9152 13.3486H11.8904L11.8656 13.3734C11.4311 13.7706 11.2408 14.263 10.9429 14.983C10.6449 15.7029 10.3263 16.6174 10.045 17.6311C9.4864 19.6586 9.03125 22.1164 9.03125 24.3673V24.5576L9.12642 24.7479C9.82569 25.9768 11.0711 26.7589 12.2255 27.3009C13.38 27.8429 14.373 28.1284 15.064 28.1533C15.341 28.1685 15.6033 28.0278 15.7439 27.7887L15.7509 27.7767L16.5784 26.312C17.4556 26.5106 18.4652 26.643 19.6279 26.643C20.7906 26.643 21.8002 26.5106 22.6774 26.312L23.5049 27.7767L23.5119 27.7887C23.6524 28.0278 23.9148 28.1685 24.1918 28.1533C24.8786 28.1284 25.8758 27.8429 27.0302 27.3009C28.1846 26.7589 29.4259 25.9768 30.1293 24.7479L30.2245 24.5576V24.3673C30.2245 22.1164 29.7694 19.6586 29.2066 17.627C28.9253 16.6132 28.6067 15.6988 28.3088 14.9788C28.0108 14.2589 27.8205 13.7706 27.386 13.3693L27.3612 13.3445H27.3364C25.4 11.7887 22.7477 11.4991 22.7477 11.4991L22.5997 11.4843C22.2849 11.4529 21.9985 11.6679 21.9408 11.979C21.9408 11.979 21.7215 13.3643 21.585 13.9932C20.7285 13.8732 20.0292 13.8484 19.6237 13.8484C19.2182 13.8484 18.519 13.8732 17.6625 13.989C17.5259 13.3601 17.3066 11.9749 17.3066 11.9749ZM16.0529 13.1583C16.086 13.2658 16.2716 14.1757 16.3006 14.2626C15.5406 14.4526 14.6455 14.7251 13.8354 15.1155C13.4583 15.2972 13.3501 15.7672 13.5727 16.1217C13.7934 16.4732 14.2559 16.5776 14.6309 16.3996C16.5174 15.5045 18.8483 15.3628 19.6237 15.3628C20.3992 15.3628 22.7269 15.5045 24.6156 16.3997C24.9912 16.5777 25.4542 16.473 25.6753 16.121C25.8978 15.7665 25.7904 15.2966 25.4138 15.1142C24.6032 14.7215 23.7074 14.4495 22.9469 14.2626C22.9758 14.1757 23.1615 13.2658 23.1946 13.1583C23.9021 13.2989 25.2469 13.6258 26.364 14.5072C26.3599 14.5113 26.6495 14.9457 26.9061 15.5705C27.1709 16.2119 27.4688 17.0642 27.7336 18.0283C28.2467 19.8737 28.648 22.1246 28.6811 24.1066C28.2053 24.8348 27.3198 25.4886 26.3889 25.9272C25.5737 26.3078 24.9283 26.4485 24.5435 26.5189L24.1669 25.8817C24.3904 25.7989 24.6138 25.7079 24.8041 25.621C25.2987 25.4027 25.6975 25.1778 25.9924 24.9913C26.3409 24.7709 26.3791 24.3056 26.1075 23.9955C25.8327 23.6817 25.3414 23.6424 24.9804 23.8515C24.7727 23.9718 24.51 24.109 24.1876 24.2514C23.1946 24.69 21.6802 25.1245 19.6237 25.1245C17.5673 25.1245 16.0529 24.6859 15.0599 24.2514C14.7381 24.1093 14.4758 23.9724 14.2683 23.8522C13.9066 23.6428 13.4144 23.6822 13.1391 23.9965C12.8676 24.3064 12.9051 24.7712 13.253 24.9917C13.5482 25.1787 13.9476 25.404 14.4434 25.621C14.6337 25.7079 14.8571 25.7989 15.0806 25.8817L14.704 26.5189C14.3192 26.4485 13.6737 26.3078 12.8586 25.9272C11.9235 25.4886 11.0422 24.8348 10.5663 24.1066C10.5994 22.1246 11.0008 19.8779 11.5139 18.0283C11.7787 17.0642 12.0766 16.2119 12.3414 15.5705C12.6021 14.9457 12.8917 14.5113 12.8834 14.5072C14.0006 13.6258 15.3454 13.3031 16.0529 13.1583ZM16.9756 18.3138C16.3922 18.3138 15.875 18.649 15.5564 19.071C15.2419 19.4931 15.0847 20.0144 15.0847 20.5854C15.0847 21.1564 15.2419 21.6778 15.5564 22.0998C15.8709 22.5219 16.3881 22.857 16.9756 22.857C17.5632 22.857 18.0762 22.5219 18.3948 22.0998C18.7093 21.6778 18.8665 21.1564 18.8665 20.5854C18.8665 20.0144 18.7093 19.4931 18.3948 19.071C18.0762 18.649 17.559 18.3138 16.9756 18.3138ZM22.2719 18.3138C21.6884 18.3138 21.1712 18.649 20.8526 19.071C20.5382 19.4931 20.3809 20.0144 20.3809 20.5854C20.3809 21.1564 20.5382 21.6778 20.8526 22.0998C21.1671 22.5219 21.6843 22.857 22.2719 22.857C22.8594 22.857 23.3725 22.5219 23.6911 22.0998C24.0056 21.6778 24.1628 21.1564 24.1628 20.5854C24.1628 20.0144 24.0056 19.4931 23.6911 19.071C23.3725 18.649 22.8553 18.3138 22.2719 18.3138ZM16.9756 19.8282C17.017 19.8282 17.0708 19.8448 17.166 19.9689C17.2611 20.0972 17.3563 20.3165 17.3563 20.5854C17.3563 20.8502 17.2611 21.0737 17.166 21.2019C17.0708 21.3302 17.017 21.3426 16.9756 21.3426C16.9342 21.3426 16.8805 21.3261 16.7853 21.2019C16.6901 21.0737 16.5949 20.8544 16.5949 20.5854C16.5949 20.3206 16.6901 20.0972 16.7853 19.9689C16.8805 19.8406 16.9342 19.8282 16.9756 19.8282ZM22.2719 19.8282C22.3132 19.8282 22.367 19.8448 22.4622 19.9689C22.5574 20.0972 22.6525 20.3165 22.6525 20.5854C22.6525 20.8502 22.5574 21.0737 22.4622 21.2019C22.367 21.3302 22.3132 21.3426 22.2719 21.3426C22.2305 21.3426 22.1767 21.3261 22.0815 21.2019C21.9864 21.0737 21.8912 20.8544 21.8912 20.5854C21.8912 20.3206 21.9864 20.0972 22.0815 19.9689C22.1767 19.8406 22.2305 19.8282 22.2719 19.8282Z" fill="#9277FF"/>
</svg>
