<svg width="193" height="33" viewBox="0 0 193 33" fill="none" xmlns="http://www.w3.org/2000/svg">
<path d="M71.5367 9.42383C75.9108 9.42383 78.8596 11.1686 78.8596 14.5843V15.3952H74.9279V14.5843C74.9279 13.2082 73.65 12.5201 71.5367 12.5201H71.0944C68.9319 12.5201 67.7032 13.159 67.7032 14.0928V14.3385C67.7032 15.4689 68.6862 15.7884 72.6671 16.4519C77.1641 17.2628 79.1545 18.5898 79.1545 21.3666V21.6123C79.1545 24.3891 76.648 26.3796 71.6104 26.3796H71.1435C66.0568 26.3796 63.4766 24.3646 63.4766 20.9488V20.1871H67.4083V20.9488C67.4083 22.6936 68.7599 23.2588 71.1681 23.2588H71.6104C73.8958 23.2588 75.1736 22.7181 75.1736 21.6615V21.4403C75.1736 20.3837 73.9941 19.9168 70.0377 19.2778C65.8848 18.6144 63.7223 17.3611 63.7223 14.5351V14.2157C63.7223 11.1686 66.5237 9.42383 71.0944 9.42383H71.5367Z" fill="white"/>
<path d="M91.1732 26.1336V24.4872H90.6571C89.8954 25.6421 88.4947 26.3793 86.5288 26.3793H86.111C83.0639 26.3793 81.3438 24.7329 81.3438 21.1452V13.5273H85.2755V20.4325C85.2755 22.1772 86.1848 23.1356 88.0032 23.1356H88.4209C90.2394 23.1356 91.1732 22.1772 91.1732 20.4325V13.5273H95.105V26.1336H91.1732Z" fill="white"/>
<path d="M101.885 13.527V15.0751H102.401C103.31 13.9447 104.662 13.2812 106.554 13.2812H106.996C110.191 13.2812 112.525 15.0751 112.525 19.1052V20.555C112.525 24.5851 110.191 26.379 106.996 26.379H106.554C104.613 26.379 103.286 25.6934 102.401 24.536H101.885V32.0309H97.9531V13.527H101.885ZM101.885 19.056V20.5796C101.885 22.4226 103.138 23.3073 105.006 23.3073H105.448C107.34 23.3073 108.593 22.3981 108.593 20.5796V19.056C108.593 17.2622 107.34 16.3529 105.448 16.3529H105.006C103.138 16.3529 101.885 17.2376 101.885 19.056Z" fill="white"/>
<path d="M122.061 13.2817C126.066 13.2817 128.941 15.2231 128.941 19.1548V20.7521H118.375V20.8996C118.375 22.718 119.53 23.6272 121.594 23.6272H122.061C123.781 23.6272 124.862 23.1358 125.206 21.9316H128.818C128.474 24.5364 126.312 26.3795 122.061 26.3795H121.594C117.588 26.3795 114.664 24.5119 114.664 20.5801V19.1548C114.664 15.2231 117.564 13.2817 121.594 13.2817H122.061ZM118.399 18.2702H125.206C125.059 16.8203 123.855 16.034 122.036 16.034H121.569C119.628 16.034 118.547 16.8203 118.399 18.2702Z" fill="white"/>
<path d="M135.432 13.527V14.9768H135.923C136.66 13.871 137.791 13.2812 139.511 13.2812C142.214 13.2812 143.639 14.6328 143.639 18.1714V19.0069H140.002V18.4909C140.002 17.1885 139.265 16.5004 137.717 16.5004C136.169 16.5004 135.432 17.1885 135.432 18.4909V26.1332H131.5V13.527H135.432Z" fill="white"/>
<path d="M159.853 7.94922V26.1337H155.922V24.5364H155.381C154.496 25.6938 153.194 26.3794 151.253 26.3794H150.786C147.591 26.3794 145.281 24.6101 145.281 20.5555V19.1056C145.281 15.0756 147.591 13.2817 150.786 13.2817H151.253C153.145 13.2817 154.472 13.9452 155.381 15.0756H155.922V7.94922H159.853ZM149.213 19.0565V20.58C149.213 22.3739 150.466 23.3077 152.334 23.3077H152.776C154.668 23.3077 155.922 22.3985 155.922 20.58V19.0565C155.922 17.2626 154.668 16.3534 152.776 16.3534H152.334C150.466 16.3534 149.213 17.2872 149.213 19.0565Z" fill="white"/>
<path d="M169.534 13.2812C173.982 13.2812 175.997 14.9768 175.997 17.8519V26.1332H172.065V24.536H171.475C170.492 25.8162 169.091 26.379 166.954 26.379C164.3 26.379 162.383 25.2019 162.383 22.5701C162.383 20.0144 164.078 18.5154 168.01 18.5154H172.065V17.8519C172.065 16.5987 171.205 16.0089 169.509 16.0089H169.067C167.445 16.0089 166.511 16.5741 166.511 17.8028H162.653C162.653 14.9523 164.84 13.2812 169.067 13.2812H169.534ZM166.265 22.1769C166.265 23.0124 166.953 23.5284 168.6 23.5284C170.246 23.5284 172.065 22.9387 172.065 21.1448V20.7762H168.551C166.904 20.7762 166.265 21.2431 166.265 22.1769Z" fill="white"/>
<path d="M185.949 13.2812C190.053 13.2812 193.002 15.2471 193.002 19.1052V20.555C193.002 24.4622 190.053 26.379 185.949 26.379H185.482C181.354 26.379 178.43 24.4377 178.43 20.555V19.1052C178.43 15.2471 181.354 13.2812 185.482 13.2812H185.949ZM182.361 19.056V20.5796C182.361 22.2506 183.32 23.3073 185.482 23.3073H185.949C188.112 23.3073 189.07 22.2506 189.07 20.5796V19.056C189.07 17.385 188.112 16.353 185.949 16.353H185.482C183.32 16.353 182.361 17.385 182.361 19.056Z" fill="white"/>
<path d="M37.968 7.22798L40.9274 19.5828C41.2518 20.937 40.2253 22.2384 38.8328 22.2384H12.1425C9.59998 22.2384 7.32802 20.6507 6.45401 18.2631L6.21159 17.6009C6.08297 17.2496 6.34306 16.8773 6.71726 16.8773H24.1481C24.3545 16.8773 24.5218 16.71 24.5218 16.5036C24.5218 14.9555 23.2668 13.7004 21.7187 13.7004H9.01701C6.47448 13.7004 4.20254 12.1127 3.32852 9.72514L3.11033 9.1291C2.9817 8.77777 3.24181 8.40559 3.61597 8.40559H20.177C20.3833 8.40559 20.5507 8.23824 20.5507 8.0318C20.5507 6.48367 19.2957 5.22866 17.7475 5.22866H5.91572C3.37322 5.22866 1.10126 3.64097 0.227246 1.2534L0.0332865 0.72357C-0.0953355 0.37218 0.164768 0 0.538929 0H28.8042C33.1628 0 36.9527 2.98926 37.968 7.22798Z" fill="url(#paint0_linear_8758_23531)"/>
<path d="M48.4482 10.9056L52.5984 28.73C52.9131 30.0807 51.8876 31.3722 50.5008 31.3722H22.6625C20.0259 31.3722 17.6921 29.6667 16.8911 27.1547L16.6091 26.27C16.443 25.749 16.8317 25.2169 17.3786 25.2169H42.7988C44.1934 25.2169 45.2203 23.9118 44.8921 22.5563L41.1791 7.21945C41.056 6.71113 41.4411 6.22168 41.9641 6.22168H42.5483C45.3646 6.22168 47.8095 8.16262 48.4482 10.9056Z" fill="url(#paint1_linear_8758_23531)"/>
<defs>
<linearGradient id="paint0_linear_8758_23531" x1="20.4845" y1="0" x2="20.4845" y2="22.2384" gradientUnits="userSpaceOnUse">
<stop stop-color="#FFC803"/>
<stop offset="1" stop-color="#FFA903"/>
</linearGradient>
<linearGradient id="paint1_linear_8758_23531" x1="34.5621" y1="6.22168" x2="34.5621" y2="31.3722" gradientUnits="userSpaceOnUse">
<stop stop-color="#FF7421"/>
<stop offset="1" stop-color="#EC5901"/>
</linearGradient>
</defs>
</svg>
