<svg width="38" height="37" viewBox="0 0 38 37" fill="none" xmlns="http://www.w3.org/2000/svg">
<circle cx="19.0018" cy="18.5142" r="18.033" fill="url(#paint0_linear_9759_1851)"/>
<path d="M24.4104 14.8924C24.0259 14.6713 23.5315 14.6713 23.0921 14.8924L20.016 16.7171L17.9286 17.8783L14.9074 19.703C14.5229 19.9242 14.0285 19.9242 13.589 19.703L11.227 18.2654C10.8425 18.0442 10.5678 17.6019 10.5678 17.1042V14.3395C10.5678 13.8971 10.7876 13.4548 11.227 13.1783L13.589 11.796C13.9736 11.5748 14.4679 11.5748 14.9074 11.796L17.2694 13.2336C17.6539 13.4548 17.9286 13.8971 17.9286 14.3948V16.2195L20.016 15.003V13.123C20.016 12.6807 19.7962 12.2383 19.3568 11.9619L14.9623 9.36303C14.5778 9.14185 14.0834 9.14185 13.644 9.36303L9.13964 12.0171C8.70019 12.2383 8.48047 12.6807 8.48047 13.123V18.3207C8.48047 18.763 8.70019 19.2054 9.13964 19.4819L13.589 22.0807C13.9736 22.3019 14.4679 22.3019 14.9074 22.0807L17.9286 20.3113L20.016 19.0948L23.0372 17.3254C23.4217 17.1042 23.9161 17.1042 24.3555 17.3254L26.7175 18.7077C27.102 18.9289 27.3767 19.3713 27.3767 19.8689V22.6336C27.3767 23.076 27.157 23.5183 26.7175 23.7948L24.4104 25.1772C24.0259 25.3983 23.5315 25.3983 23.0921 25.1772L20.7301 23.7948C20.3455 23.5736 20.0709 23.1313 20.0709 22.6336V20.8642L17.9835 22.0807V23.9054C17.9835 24.3477 18.2032 24.7901 18.6427 25.0666L23.0921 27.6654C23.4766 27.8866 23.971 27.8866 24.4104 27.6654L28.8598 25.0666C29.2443 24.8454 29.519 24.403 29.519 23.9054V18.6524C29.519 18.2101 29.2993 17.7677 28.8598 17.4913L24.4104 14.8924Z" fill="#10151A"/>
<defs>
<linearGradient id="paint0_linear_9759_1851" x1="19.0018" y1="0.481201" x2="19.0018" y2="36.5473" gradientUnits="userSpaceOnUse">
<stop stop-color="#965EF4"/>
<stop offset="1" stop-color="#8247E5"/>
</linearGradient>
</defs>
</svg>
