<svg width="34" height="34" viewBox="0 0 34 34" fill="none" xmlns="http://www.w3.org/2000/svg">
<path d="M17 2L17.78 9.51397C18.1475 13.0542 20.9458 15.8525 24.486 16.22L32 17L24.486 17.78C20.9458 18.1475 18.1475 20.9458 17.78 24.486L17 32L16.22 24.486C15.8525 20.9458 13.0542 18.1475 9.51397 17.78L2 17L9.51397 16.22C13.0542 15.8525 15.8525 13.0542 16.22 9.51397L17 2Z" fill="#4BE1F4"/>
<path d="M17 2L17.78 9.51397C18.1475 13.0542 20.9458 15.8525 24.486 16.22L32 17L24.486 17.78C20.9458 18.1475 18.1475 20.9458 17.78 24.486L17 32L16.22 24.486C15.8525 20.9458 13.0542 18.1475 9.51397 17.78L2 17L9.51397 16.22C13.0542 15.8525 15.8525 13.0542 16.22 9.51397L17 2Z" stroke="#4BE1F4" stroke-width="2.3097" stroke-linejoin="round"/>
</svg>
